<svg width="19" height="20" viewBox="0 0 19 20" fill="none" xmlns="http://www.w3.org/2000/svg">
<g id="icon-park-solid:ambulance" clip-path="url(#clip0_60_3804)">
<g id="Group">
<path id="Vector" d="M4.0689 14.1412H2.52134C2.31612 14.1412 2.11931 14.0597 1.97419 13.9145C1.82908 13.7694 1.74756 13.5726 1.74756 13.3674V4.85581C1.74756 4.65059 1.82908 4.45378 1.97419 4.30867C2.11931 4.16355 2.31612 4.08203 2.52134 4.08203H12.1936C12.3988 4.08203 12.5956 4.16355 12.7407 4.30867C12.8859 4.45378 12.9674 4.65059 12.9674 4.85581V7.52497C12.9673 7.76327 13.0406 7.99581 13.1774 8.191C13.3141 8.3862 13.5075 8.53458 13.7315 8.616L16.4591 9.6076C16.683 9.68902 16.8765 9.8374 17.0132 10.0326C17.1499 10.2278 17.2232 10.4603 17.2232 10.6986V13.3674C17.2232 13.5726 17.1417 13.7694 16.9965 13.9145C16.8514 14.0597 16.6546 14.1412 16.4494 14.1412H14.9018M7.16403 14.1412H11.8067" stroke="#EF5820" stroke-width="1.54756" stroke-linejoin="round"/>
<path id="Vector_2" d="M4.84277 7.951H7.9379M6.39034 6.40344V9.49857" stroke="#EF5820" stroke-width="1.54756" stroke-linecap="round" stroke-linejoin="round"/>
<path id="Vector_3" d="M5.61641 15.6888C6.4711 15.6888 7.16397 14.9959 7.16397 14.1412C7.16397 13.2865 6.4711 12.5936 5.61641 12.5936C4.76171 12.5936 4.06885 13.2865 4.06885 14.1412C4.06885 14.9959 4.76171 15.6888 5.61641 15.6888Z" fill="#EF5820" stroke="#EF5820" stroke-width="1.54756"/>
<path id="Vector_4" d="M13.3542 15.6888C14.2089 15.6888 14.9018 14.9959 14.9018 14.1412C14.9018 13.2865 14.2089 12.5936 13.3542 12.5936C12.4995 12.5936 11.8066 13.2865 11.8066 14.1412C11.8066 14.9959 12.4995 15.6888 13.3542 15.6888Z" fill="#EF5820" stroke="#EF5820" stroke-width="1.54756"/>
</g>
</g>
<defs>
<clipPath id="clip0_60_3804">
<rect width="18.5707" height="18.5707" fill="white" transform="translate(0.200195 0.600037)"/>
</clipPath>
</defs>
</svg>
