<svg width="18" height="19" viewBox="0 0 18 19" fill="none" xmlns="http://www.w3.org/2000/svg">
<g id="ph:bell-bold">
<path id="Vector" d="M15.8407 12.467C15.2303 11.4172 14.9062 9.91044 14.9062 8.11255C14.9062 6.54611 14.2839 5.04384 13.1763 3.9362C12.0687 2.82856 10.5664 2.2063 8.99996 2.2063C7.43352 2.2063 5.93125 2.82856 4.82361 3.9362C3.71597 5.04384 3.09371 6.54611 3.09371 8.11255C3.09371 9.91114 2.77097 11.4172 2.16066 12.467C2.03613 12.6811 1.97011 12.9242 1.96925 13.1719C1.96838 13.4196 2.0327 13.6632 2.15574 13.8782C2.278 14.0933 2.45546 14.2718 2.66979 14.3954C2.88411 14.519 3.12755 14.5832 3.37496 14.5813H5.91886C5.98863 15.3503 6.34342 16.0653 6.91352 16.5861C7.48363 17.1068 8.22784 17.3955 8.99996 17.3955C9.77208 17.3955 10.5163 17.1068 11.0864 16.5861C11.6565 16.0653 12.0113 15.3503 12.0811 14.5813H14.625C14.872 14.5828 15.115 14.5185 15.3289 14.3949C15.5429 14.2713 15.72 14.093 15.8421 13.8782C15.9656 13.6635 16.0306 13.4201 16.0303 13.1724C16.0301 12.9247 15.9647 12.6814 15.8407 12.467ZM8.99996 15.7063C8.67578 15.7064 8.36153 15.5944 8.11039 15.3894C7.85926 15.1844 7.68667 14.8989 7.62183 14.5813H10.3781C10.3132 14.8989 10.1407 15.1844 9.88953 15.3894C9.63839 15.5944 9.32414 15.7064 8.99996 15.7063ZM3.84324 12.8938C4.46551 11.6282 4.78121 10.0208 4.78121 8.11255C4.78121 6.99367 5.22568 5.92061 6.01685 5.12944C6.80802 4.33827 7.88108 3.8938 8.99996 3.8938C10.1188 3.8938 11.1919 4.33827 11.9831 5.12944C12.7742 5.92061 13.2187 6.99367 13.2187 8.11255C13.2187 10.0201 13.5337 11.6282 14.156 12.8938H3.84324Z" fill="#EF5820"/>
</g>
</svg>
