<svg width="19" height="19" viewBox="0 0 19 19" fill="none" xmlns="http://www.w3.org/2000/svg">
<g id="heroicons-outline:phone-missed-call">
<path id="Vector" d="M12.6417 6.63203L14.1617 5.11203M14.1617 5.11203L15.6817 3.59203M14.1617 5.11203L12.6417 3.59203M14.1617 5.11203L15.6817 6.63203M4.28172 2.83203C3.87859 2.83203 3.49197 2.99217 3.20692 3.27723C2.92186 3.56228 2.76172 3.9489 2.76172 4.35203V5.11203C2.76172 11.4079 7.86588 16.512 14.1617 16.512H14.9217C15.3248 16.512 15.7115 16.3519 15.9965 16.0668C16.2816 15.7818 16.4417 15.3952 16.4417 14.992V12.4992C16.4416 12.3398 16.3913 12.1844 16.298 12.0551C16.2047 11.9258 16.0732 11.8291 15.9219 11.7788L12.5072 10.6403C12.3337 10.5826 12.1451 10.5894 11.9762 10.6595C11.8073 10.7296 11.6693 10.8582 11.5876 11.0218L10.7288 12.7371C8.86778 11.8961 7.37729 10.4054 6.53664 8.54419L8.25196 7.68691C8.41555 7.60518 8.54419 7.4672 8.61426 7.29828C8.68434 7.12937 8.69116 6.94085 8.63348 6.76731L7.495 3.35111C7.44444 3.19986 7.34759 3.06834 7.21815 2.97518C7.08871 2.88202 6.93324 2.83194 6.77376 2.83203H4.28172Z" stroke="white" stroke-width="1.52" stroke-linecap="round" stroke-linejoin="round"/>
</g>
</svg>
