<svg width="19" height="19" viewBox="0 0 19 19" fill="none" xmlns="http://www.w3.org/2000/svg">
<g id="fluent:hard-drive-call-24-regular" clip-path="url(#clip0_266_1986)">
<path id="Vector" d="M4.89122 2.88294L4.0043 3.1497C3.5356 3.29105 3.1112 3.55075 2.77202 3.90377C2.43284 4.2568 2.19032 4.69124 2.06782 5.16522C1.5229 7.27194 2.11342 9.78374 3.79682 12.6991C5.47794 15.6107 7.35438 17.3769 9.44818 17.9613C9.9222 18.0935 10.4224 18.1006 10.9 17.9821C11.3775 17.8636 11.8163 17.6234 12.1735 17.2849L12.8477 16.6473C13.2151 16.2992 13.4437 15.8297 13.491 15.3258C13.5384 14.8219 13.4014 14.318 13.1053 13.9075L12.1317 12.5585C11.8765 12.2047 11.5169 11.9396 11.1034 11.8004C10.6899 11.6613 10.2432 11.655 9.8259 11.7825L8.2983 12.2499C8.25498 12.2621 8.1539 12.2271 7.96922 12.0637C7.7055 11.8297 7.39542 11.4132 7.05266 10.8196C6.58146 10.0034 6.37626 9.41514 6.41046 9.11342C6.41532 9.06844 6.43607 9.02667 6.46898 8.99562L7.60518 7.93694C7.92459 7.63926 8.14276 7.24903 8.22904 6.82102C8.31532 6.39301 8.26539 5.94873 8.08627 5.55054L7.40074 4.02674C7.19261 3.56392 6.82319 3.19264 6.36142 2.98217C5.89965 2.7717 5.37708 2.73643 4.89122 2.88294ZM3.17058 5.45098C3.24419 5.16651 3.38985 4.90581 3.59352 4.69402C3.79719 4.48222 4.05201 4.32648 4.33338 4.24182L5.2203 3.9743C5.44105 3.90789 5.67841 3.92401 5.88815 4.01965C6.09789 4.11529 6.2657 4.28393 6.3603 4.49414L7.04582 6.0187C7.12727 6.19962 7.15002 6.40148 7.1109 6.59599C7.07179 6.79049 6.97275 6.96786 6.8277 7.10322L5.6915 8.1619C5.45929 8.37872 5.31236 8.6715 5.2773 8.98726C5.2089 9.59678 5.48098 10.3781 6.06542 11.3896C6.93182 12.8906 7.73818 13.6058 8.62739 13.3413L10.1588 12.8724C10.3485 12.8143 10.5517 12.817 10.7398 12.8803C10.9279 12.9435 11.0915 13.0641 11.2076 13.225L12.1804 14.574C12.3153 14.7607 12.3777 14.99 12.3562 15.2192C12.3347 15.4485 12.2306 15.6621 12.0633 15.8204L11.39 16.4581C11.1755 16.661 10.9122 16.805 10.6256 16.876C10.339 16.947 10.0389 16.9426 9.75447 16.8631C7.99355 16.3722 6.3299 14.8058 4.78406 12.1291C3.2367 9.44858 2.7123 7.22254 3.17058 5.45098ZM16.7138 3.80482C16.7682 3.75222 16.8116 3.6893 16.8414 3.61974C16.8713 3.55019 16.887 3.47539 16.8876 3.3997C16.8882 3.32402 16.8737 3.24897 16.8451 3.17893C16.8164 3.10889 16.774 3.04527 16.7205 2.99178C16.6669 2.93828 16.6033 2.89599 16.5332 2.86736C16.4631 2.83874 16.3881 2.82435 16.3124 2.82504C16.2367 2.82574 16.1619 2.84149 16.0924 2.8714C16.0229 2.90131 15.96 2.94476 15.9074 2.99922L11.561 7.34642L10.1398 5.92522C10.0317 5.82454 9.88882 5.76973 9.74115 5.77233C9.59348 5.77494 9.45259 5.83476 9.34815 5.93919C9.24372 6.04363 9.1839 6.18452 9.18129 6.33219C9.17869 6.47986 9.2335 6.62277 9.33418 6.73082L11.1582 8.55482C11.2651 8.66157 11.4099 8.72152 11.561 8.72152C11.712 8.72152 11.8569 8.66157 11.9638 8.55482L16.7138 3.80482Z" fill="white"/>
</g>
<defs>
<clipPath id="clip0_266_1986">
<rect width="18.24" height="18.24" fill="white" transform="translate(0.160156 0.551758)"/>
</clipPath>
</defs>
</svg>
