<svg width="19" height="19" viewBox="0 0 19 19" fill="none" xmlns="http://www.w3.org/2000/svg">
<g id="fluent:call-inbound-24-regular">
<path id="Vector" d="M7.27922 3.266L7.96474 4.79056C8.14369 5.18865 8.19352 5.63278 8.10725 6.06063C8.02097 6.48847 7.80291 6.87858 7.48366 7.1762L6.34746 8.23488C6.31427 8.26581 6.29324 8.3076 6.28818 8.35268C6.25474 8.6544 6.45918 9.24188 6.93114 10.0589C7.27314 10.6524 7.58398 11.0697 7.8477 11.303C8.03238 11.4664 8.13346 11.5014 8.17678 11.4892L9.70438 11.0218C10.1216 10.8942 10.5682 10.9003 10.9817 11.0394C11.3952 11.1784 11.7549 11.4433 12.0102 11.797L12.983 13.1468C13.2792 13.5571 13.4164 14.061 13.3691 14.5649C13.3219 15.0688 13.0934 15.5384 12.7261 15.8866L12.052 16.525C11.6947 16.8633 11.2559 17.1033 10.7783 17.2217C10.3007 17.3401 9.80061 17.3328 9.32666 17.2006C7.23286 16.6162 5.35642 14.8499 3.6753 11.9384C1.99266 9.023 1.40138 6.51196 1.94706 4.40448C2.06245 3.95775 2.28457 3.54572 2.59434 3.20378C2.90411 2.86184 3.29226 2.60022 3.72546 2.4414L3.88202 2.38896L4.76894 2.1222C5.2548 1.97569 5.77737 2.01096 6.23914 2.22143C6.7009 2.43189 7.07032 2.80318 7.27846 3.266M5.09726 3.2128L4.2111 3.48108L4.09026 3.52212C3.83627 3.61992 3.6093 3.77693 3.4282 3.9801C3.24711 4.18327 3.11713 4.42673 3.04906 4.69024C2.59078 6.4618 3.11442 8.68784 4.66178 11.3684C6.20762 14.0451 7.87126 15.6114 9.63218 16.1032C9.91663 16.1825 10.2168 16.1868 10.5034 16.1157C10.79 16.0446 11.0533 15.9004 11.2677 15.6973L11.9411 15.0589C12.1081 14.9007 12.2121 14.6872 12.2336 14.4581C12.2551 14.229 12.1928 13.9999 12.0581 13.8133L11.0853 12.4643C10.9692 12.3033 10.8056 12.1828 10.6175 12.1195C10.4294 12.0563 10.2262 12.0535 10.0365 12.1116L8.5051 12.5806C7.6159 12.845 6.80954 12.1299 5.94314 10.6289C5.35946 9.61808 5.08738 8.83528 5.15578 8.22652C5.19074 7.91036 5.33818 7.61852 5.56998 7.40116L6.70618 6.34248C6.85123 6.20712 6.95026 6.02975 6.98938 5.83524C7.0285 5.64074 7.00574 5.43887 6.9243 5.25796L6.23954 3.7334C6.14492 3.52303 5.97698 3.35426 5.76707 3.25861C5.55717 3.16295 5.31962 3.14694 5.09878 3.21356M15.4295 8.91128H10.4492L10.3732 8.90064L10.2957 8.8786L10.2599 8.8634C10.152 8.81796 10.0614 8.73912 10.0015 8.63844L9.9643 8.56624L9.9453 8.51532L9.92782 8.44312L9.9187 8.36332V3.39748C9.91874 3.25306 9.9736 3.11405 10.0722 3.00852C10.1708 2.90299 10.3058 2.83883 10.4498 2.82898C10.5939 2.81914 10.7364 2.86435 10.8484 2.95549C10.9604 3.04663 11.0337 3.17689 11.0534 3.31996L11.0587 3.39748L11.0579 6.96492L15.7851 2.23544C15.8817 2.13871 16.0098 2.07989 16.1461 2.06971C16.2824 2.05952 16.4178 2.09865 16.5277 2.17996L16.5915 2.23544C16.688 2.33195 16.7467 2.4599 16.7569 2.59602C16.7671 2.73215 16.7281 2.8674 16.647 2.9772L16.5923 3.04104L11.8651 7.76976L15.4295 7.77052C15.5673 7.77034 15.7006 7.82014 15.8046 7.91069C15.9085 8.00125 15.9761 8.12641 15.9949 8.263L15.9995 8.34052C15.9995 8.47826 15.9496 8.61134 15.859 8.71515C15.7685 8.81896 15.6434 8.88647 15.507 8.9052L15.4295 8.91128Z" fill="white"/>
</g>
</svg>
