<svg width="19" height="19" viewBox="0 0 19 19" fill="none" xmlns="http://www.w3.org/2000/svg">
<g id="fluent:hard-drive-call-24-regular" clip-path="url(#clip0_266_1701)">
<path id="Vector" d="M4.71649 4.557C4.85649 4.26766 5.0752 4.02364 5.34754 3.85293C5.61989 3.68221 5.93483 3.59171 6.25625 3.5918H13.1859C13.8418 3.5918 14.4399 3.96648 14.7257 4.557L16.4646 8.1518C16.0701 8.14402 15.685 8.2729 15.3747 8.5166L13.6997 5.05328C13.653 4.9568 13.58 4.87546 13.4891 4.8186C13.3982 4.76173 13.2931 4.73165 13.1859 4.7318H6.25625C6.14905 4.73165 6.04398 4.76173 5.95311 4.8186C5.86223 4.87546 5.78923 4.9568 5.74249 5.05328L3.87669 8.9118H15.0092C14.9438 9.0106 14.8876 9.117 14.842 9.231L14.519 10.0518H3.83109C3.67992 10.0518 3.53494 10.1119 3.42804 10.2187C3.32115 10.3256 3.26109 10.4706 3.26109 10.6218V13.2818C3.26109 13.5964 3.51645 13.8518 3.83109 13.8518H12.4275C12.3511 13.9187 12.2812 13.9924 12.2185 14.0722L11.6105 14.839C11.5717 14.888 11.5357 14.939 11.5025 14.9918H3.83109C3.60653 14.9918 3.38417 14.9476 3.17671 14.8616C2.96924 14.7757 2.78073 14.6497 2.62194 14.4909C2.46315 14.3322 2.3372 14.1437 2.25126 13.9362C2.16532 13.7287 2.12109 13.5064 2.12109 13.2818V10.4873C2.12109 10.1149 2.20469 9.74704 2.36733 9.41188L4.71649 4.557ZM15.187 10.428L15.5488 9.5122C15.7327 9.04556 16.248 8.80312 16.7253 8.95892L17.0528 9.06608C17.6031 9.2462 18.0606 9.67864 18.0788 10.2585C18.1548 12.6221 16.1971 16.0216 14.1169 17.1403C13.6055 17.4154 13.0013 17.2338 12.5703 16.8432L12.3142 16.6114C12.1351 16.4492 12.0244 16.2251 12.0043 15.9844C11.9843 15.7436 12.0565 15.5043 12.2063 15.3148L12.8143 14.5472C13.0347 14.2683 13.3972 14.1444 13.7415 14.228L14.7234 14.4659C15.5617 13.9111 16.0109 13.1313 16.0717 12.1258L15.3747 11.3932C15.2547 11.2669 15.1733 11.109 15.1401 10.938C15.1068 10.767 15.1231 10.59 15.187 10.428Z" fill="white"/>
</g>
<defs>
<clipPath id="clip0_266_1701">
<rect width="18.24" height="18.24" fill="white" transform="translate(0.601562 0.551758)"/>
</clipPath>
</defs>
</svg>
