<svg width="26" height="26" viewBox="0 0 26 26" fill="none" xmlns="http://www.w3.org/2000/svg">
<g id="carbon:close-outline">
<path id="Vector" d="M13.2846 1.97266C7.16939 1.97266 2.30859 6.83346 2.30859 12.9487C2.30859 19.0639 7.16939 23.9247 13.2846 23.9247C19.3998 23.9247 24.2606 19.0639 24.2606 12.9487C24.2606 6.83346 19.3998 1.97266 13.2846 1.97266ZM13.2846 22.3567C8.11019 22.3567 3.87659 18.1231 3.87659 12.9487C3.87659 7.77426 8.11019 3.54066 13.2846 3.54066C18.459 3.54066 22.6926 7.77426 22.6926 12.9487C22.6926 18.1231 18.459 22.3567 13.2846 22.3567Z" fill="#EF5820"/>
<path id="Vector_2" d="M17.5185 18.436L13.2849 14.2024L9.05128 18.436L7.79688 17.1816L12.0305 12.948L7.79688 8.71436L9.05128 7.45996L13.2849 11.6936L17.5185 7.45996L18.7729 8.71436L14.5393 12.948L18.7729 17.1816L17.5185 18.436Z" fill="#EF5820"/>
</g>
</svg>
