<svg width="19" height="20" viewBox="0 0 19 20" fill="none" xmlns="http://www.w3.org/2000/svg">
<g id="fluent:delete-16-filled">
<path id="Vector" d="M8.38597 3.98384H10.738C10.738 3.67194 10.6141 3.37282 10.3935 3.15228C10.173 2.93174 9.87386 2.80784 9.56197 2.80784C9.25007 2.80784 8.95095 2.93174 8.73041 3.15228C8.50987 3.37282 8.38597 3.67194 8.38597 3.98384ZM7.20997 3.98384C7.20997 3.36005 7.45777 2.76181 7.89885 2.32072C8.33994 1.87964 8.93818 1.63184 9.56197 1.63184C10.1858 1.63184 10.784 1.87964 11.2251 2.32072C11.6662 2.76181 11.914 3.36005 11.914 3.98384H16.618C16.7739 3.98384 16.9235 4.04579 17.0337 4.15606C17.144 4.26633 17.206 4.41589 17.206 4.57184C17.206 4.72778 17.144 4.87734 17.0337 4.98761C16.9235 5.09789 16.7739 5.15984 16.618 5.15984H15.9547L14.5376 15.5533C14.4415 16.2577 14.0935 16.9033 13.5579 17.3708C13.0223 17.8382 12.3355 18.0958 11.6247 18.0958H7.49926C6.78839 18.0958 6.1016 17.8382 5.56604 17.3708C5.03048 16.9033 4.68242 16.2577 4.58631 15.5533L3.16923 5.15984H2.50597C2.35002 5.15984 2.20046 5.09789 2.09019 4.98761C1.97992 4.87734 1.91797 4.72778 1.91797 4.57184C1.91797 4.41589 1.97992 4.26633 2.09019 4.15606C2.20046 4.04579 2.35002 3.98384 2.50597 3.98384H7.20997ZM8.38597 8.09984C8.38597 7.94389 8.32402 7.79433 8.21375 7.68406C8.10348 7.57379 7.95392 7.51184 7.79797 7.51184C7.64202 7.51184 7.49246 7.57379 7.38219 7.68406C7.27192 7.79433 7.20997 7.94389 7.20997 8.09984V13.9798C7.20997 14.1358 7.27192 14.2853 7.38219 14.3956C7.49246 14.5059 7.64202 14.5678 7.79797 14.5678C7.95392 14.5678 8.10348 14.5059 8.21375 14.3956C8.32402 14.2853 8.38597 14.1358 8.38597 13.9798V8.09984ZM11.326 7.51184C11.17 7.51184 11.0205 7.57379 10.9102 7.68406C10.7999 7.79433 10.738 7.94389 10.738 8.09984V13.9798C10.738 14.1358 10.7999 14.2853 10.9102 14.3956C11.0205 14.5059 11.17 14.5678 11.326 14.5678C11.4819 14.5678 11.6315 14.5059 11.7417 14.3956C11.852 14.2853 11.914 14.1358 11.914 13.9798V8.09984C11.914 7.94389 11.852 7.79433 11.7417 7.68406C11.6315 7.57379 11.4819 7.51184 11.326 7.51184Z" fill="white"/>
</g>
</svg>
