<svg width="34" height="33" viewBox="0 0 34 33" fill="none" xmlns="http://www.w3.org/2000/svg">
<g id="fluent:location-12-regular">
<path id="Vector" d="M17.1175 1.4082C20.3924 1.4082 23.5332 2.70915 25.8489 5.02485C28.1646 7.34055 29.4655 10.4813 29.4655 13.7562C29.4655 18.8683 25.5691 24.2246 17.9407 29.9458C17.7032 30.1239 17.4144 30.2202 17.1175 30.2202C16.8207 30.2202 16.5318 30.1239 16.2943 29.9458C8.66601 24.2246 4.76953 18.8683 4.76953 13.7562C4.76953 10.4813 6.07048 7.34055 8.38618 5.02485C10.7019 2.70915 13.8426 1.4082 17.1175 1.4082ZM17.1175 4.1522C14.5704 4.1522 12.1276 5.16405 10.3265 6.96515C8.52538 8.76625 7.51353 11.2091 7.51353 13.7562C7.51353 17.4743 10.4194 21.7632 16.3602 26.524L17.1175 27.1222L17.8749 26.524C23.8156 21.7632 26.7215 17.4743 26.7215 13.7562C26.7215 11.2091 25.7097 8.76625 23.9086 6.96515C22.1075 5.16405 19.6647 4.1522 17.1175 4.1522ZM17.1175 11.0122C17.8453 11.0122 18.5432 11.3013 19.0578 11.8159C19.5724 12.3305 19.8615 13.0284 19.8615 13.7562C19.8615 14.484 19.5724 15.1819 19.0578 15.6965C18.5432 16.2111 17.8453 16.5002 17.1175 16.5002C16.3898 16.5002 15.6918 16.2111 15.1772 15.6965C14.6626 15.1819 14.3735 14.484 14.3735 13.7562C14.3735 13.0284 14.6626 12.3305 15.1772 11.8159C15.6918 11.3013 16.3898 11.0122 17.1175 11.0122Z" fill="white"/>
</g>
</svg>
