<svg width="19" height="20" viewBox="0 0 19 20" fill="none" xmlns="http://www.w3.org/2000/svg">
<g id="grommet-icons:group" clip-path="url(#clip0_60_3828)">
<path id="Vector" d="M9.2595 10.8313C10.0781 10.8313 10.8632 10.5061 11.442 9.92725C12.0209 9.3484 12.346 8.56333 12.346 7.74472C12.346 6.92612 12.0209 6.14104 11.442 5.5622C10.8632 4.98336 10.0781 4.65817 9.2595 4.65817C8.44089 4.65817 7.65582 4.98336 7.07698 5.5622C6.49814 6.14104 6.17295 6.92612 6.17295 7.74472C6.17295 8.56333 6.49814 9.3484 7.07698 9.92725C7.65582 10.5061 8.44089 10.8313 9.2595 10.8313ZM9.2595 10.8313C8.03159 10.8313 6.85398 11.3191 5.98572 12.1873C5.11746 13.0556 4.62967 14.2332 4.62967 15.4611V17.776M9.2595 10.8313C10.4874 10.8313 11.665 11.3191 12.5333 12.1873C13.4015 13.0556 13.8893 14.2332 13.8893 15.4611V17.776M10.0311 4.65817C10.3429 3.37417 11.586 2.34326 13.1177 2.34326C14.7937 2.34326 16.1888 3.72449 16.2042 5.42981C16.1888 7.13513 14.7937 8.51636 13.1177 8.51636M13.1177 8.51636H12.346M13.1177 8.51636C15.6548 8.51636 17.7475 10.589 17.7475 13.1462V14.6895M8.48786 4.65817C8.17612 3.37417 6.93301 2.34326 5.40131 2.34326C3.72531 2.34326 2.33019 3.72449 2.31476 5.42981C2.33019 7.13513 3.72531 8.51636 5.40131 8.51636M5.40131 8.51636H6.17295M5.40131 8.51636C2.86417 8.51636 0.771484 10.589 0.771484 13.1462V14.6895" stroke="#EF5820" stroke-width="1.54327"/>
</g>
<defs>
<clipPath id="clip0_60_3828">
<rect width="18.5193" height="18.5193" fill="white" transform="translate(0 0.799988)"/>
</clipPath>
</defs>
</svg>
