<svg width="19" height="19" viewBox="0 0 19 19" fill="none" xmlns="http://www.w3.org/2000/svg">
<g id="ic:outline-local-offer">
<path id="Vector" d="M16.2577 9.2851L9.5077 2.5351C9.2377 2.2651 8.8627 2.1001 8.4502 2.1001H3.2002C2.3752 2.1001 1.7002 2.7751 1.7002 3.6001V8.8501C1.7002 9.2626 1.8652 9.6376 2.1427 9.9151L8.8927 16.6651C9.1627 16.9351 9.5377 17.1001 9.9502 17.1001C10.3627 17.1001 10.7377 16.9351 11.0077 16.6576L16.2577 11.4076C16.5352 11.1376 16.7002 10.7626 16.7002 10.3501C16.7002 9.9376 16.5277 9.5551 16.2577 9.2851ZM9.9502 15.6076L3.2002 8.8501V3.6001H8.4502V3.5926L15.2002 10.3426L9.9502 15.6076Z" fill="#EF5820"/>
<path id="Vector_2" d="M5.0752 6.6001C5.69652 6.6001 6.2002 6.09642 6.2002 5.4751C6.2002 4.85378 5.69652 4.3501 5.0752 4.3501C4.45387 4.3501 3.9502 4.85378 3.9502 5.4751C3.9502 6.09642 4.45387 6.6001 5.0752 6.6001Z" fill="#EF5820"/>
</g>
</svg>
