<svg width="19" height="19" viewBox="0 0 19 19" fill="none" xmlns="http://www.w3.org/2000/svg">
<g id="tabler:logout">
<g id="Group">
<path id="Vector" d="M11.0863 6.48967V4.93447C11.0863 4.52201 10.9225 4.12644 10.6308 3.83478C10.3392 3.54312 9.94358 3.37927 9.53112 3.37927H4.08791C3.67545 3.37927 3.27988 3.54312 2.98822 3.83478C2.69657 4.12644 2.53271 4.52201 2.53271 4.93447V14.2657C2.53271 14.6781 2.69657 15.0737 2.98822 15.3654C3.27988 15.657 3.67545 15.8209 4.08791 15.8209H9.53112C9.94358 15.8209 10.3392 15.657 10.6308 15.3654C10.9225 15.0737 11.0863 14.6781 11.0863 14.2657V12.7105" stroke="white" stroke-width="1.5552" stroke-linecap="round" stroke-linejoin="round"/>
<path id="Vector_2" d="M7.19824 9.60001H16.5294M16.5294 9.60001L14.1966 7.26721M16.5294 9.60001L14.1966 11.9328" stroke="white" stroke-width="1.5552" stroke-linecap="round" stroke-linejoin="round"/>
</g>
</g>
</svg>
