<svg width="14" height="14" viewBox="0 0 14 14" fill="none" xmlns="http://www.w3.org/2000/svg">
<g id="material-symbols:map-outline">
<path id="Vector" d="M8.58219 12.0666L5.16219 10.8696L2.51169 11.8956C2.32169 11.9716 2.14594 11.9504 1.98444 11.8318C1.82294 11.7132 1.74219 11.554 1.74219 11.3541V3.37414C1.74219 3.25064 1.77791 3.14139 1.84935 3.04639C1.92079 2.95139 2.01807 2.88014 2.14119 2.83264L5.16219 1.80664L8.58219 3.00364L11.2327 1.97764C11.4227 1.90164 11.5984 1.92311 11.7599 2.04205C11.9214 2.16099 12.0022 2.32002 12.0022 2.51914V10.4991C12.0022 10.6226 11.9667 10.7319 11.8956 10.8269C11.8245 10.9219 11.7271 10.9931 11.6032 11.0406L8.58219 12.0666ZM8.01219 10.6701V4.00114L5.73219 3.20314V9.87214L8.01219 10.6701ZM9.15219 10.6701L10.8622 10.1001V3.34564L9.15219 4.00114V10.6701ZM2.88219 10.5276L4.59219 9.87214V3.20314L2.88219 3.77314V10.5276Z" fill="#EF5820"/>
</g>
</svg>
