<svg width="20" height="21" viewBox="0 0 20 21" fill="none" xmlns="http://www.w3.org/2000/svg">
<path d="M10.0002 4.1333C10.8842 4.1333 11.7321 4.48449 12.3572 5.10961C12.9823 5.73473 13.3335 6.58258 13.3335 7.46663C13.3335 8.35069 12.9823 9.19854 12.3572 9.82366C11.7321 10.4488 10.8842 10.8 10.0002 10.8C9.11611 10.8 8.26826 10.4488 7.64314 9.82366C7.01802 9.19854 6.66683 8.35069 6.66683 7.46663C6.66683 6.58258 7.01802 5.73473 7.64314 5.10961C8.26826 4.48449 9.11611 4.1333 10.0002 4.1333ZM10.0002 5.79997C9.55814 5.79997 9.13421 5.97556 8.82165 6.28812C8.50909 6.60068 8.3335 7.02461 8.3335 7.46663C8.3335 7.90866 8.50909 8.33258 8.82165 8.64514C9.13421 8.95771 9.55814 9.1333 10.0002 9.1333C10.4422 9.1333 10.8661 8.95771 11.1787 8.64514C11.4912 8.33258 11.6668 7.90866 11.6668 7.46663C11.6668 7.02461 11.4912 6.60068 11.1787 6.28812C10.8661 5.97556 10.4422 5.79997 10.0002 5.79997ZM10.0002 11.6333C12.2252 11.6333 16.6668 12.7416 16.6668 14.9666V17.4666H3.3335V14.9666C3.3335 12.7416 7.77516 11.6333 10.0002 11.6333ZM10.0002 13.2166C7.52516 13.2166 4.91683 14.4333 4.91683 14.9666V15.8833H15.0835V14.9666C15.0835 14.4333 12.4752 13.2166 10.0002 13.2166Z" fill="#EF5820"/>
</svg>
