<svg width="19" height="19" viewBox="0 0 19 19" fill="none" xmlns="http://www.w3.org/2000/svg">
<g id="iconoir:reports">
<path id="Vector" d="M6.9502 16.1501H11.4502M6.9502 16.1501V12.4001M6.9502 16.1501H2.9002C2.78085 16.1501 2.66639 16.1027 2.582 16.0183C2.49761 15.934 2.4502 15.8195 2.4502 15.7001V12.8501C2.4502 12.7308 2.49761 12.6163 2.582 12.5319C2.66639 12.4476 2.78085 12.4001 2.9002 12.4001H6.9502M11.4502 16.1501V7.15015M11.4502 16.1501H15.5002C15.6195 16.1501 15.734 16.1027 15.8184 16.0183C15.9028 15.934 15.9502 15.8195 15.9502 15.7001V3.10015C15.9502 2.9808 15.9028 2.86634 15.8184 2.78195C15.734 2.69756 15.6195 2.65015 15.5002 2.65015H11.9002C11.7808 2.65015 11.6664 2.69756 11.582 2.78195C11.4976 2.86634 11.4502 2.9808 11.4502 3.10015V7.15015M6.9502 12.4001V7.60015C6.9502 7.4808 6.99761 7.36634 7.082 7.28195C7.16639 7.19756 7.28085 7.15015 7.4002 7.15015H11.4502" stroke="#EF5820" stroke-width="1.5"/>
</g>
</svg>
