<svg width="20" height="20" viewBox="0 0 20 20" fill="none" xmlns="http://www.w3.org/2000/svg">
<g id="mingcute:search-line" clip-path="url(#clip0_266_3066)">
<g id="Group">
<path id="Vector" fill-rule="evenodd" clip-rule="evenodd" d="M8.90562 2.15625C7.84298 2.15634 6.79577 2.41055 5.85136 2.89767C4.90695 3.3848 4.09272 4.0907 3.47661 4.9565C2.86049 5.8223 2.46036 6.82289 2.3096 7.87478C2.15884 8.92667 2.26181 9.99936 2.60993 11.0034C2.95805 12.0074 3.54122 12.9136 4.31078 13.6463C5.08035 14.3791 6.014 14.9172 7.03383 15.2158C8.05367 15.5144 9.13011 15.5647 10.1734 15.3627C11.2166 15.1606 12.1964 14.712 13.031 14.0542L15.8942 16.9174C16.0421 17.0602 16.2401 17.1392 16.4457 17.1374C16.6512 17.1357 16.8479 17.0532 16.9932 16.9079C17.1386 16.7625 17.221 16.5659 17.2228 16.3603C17.2246 16.1547 17.1456 15.9567 17.0028 15.8088L14.1396 12.9457C14.9142 11.963 15.3965 10.7821 15.5313 9.53818C15.6661 8.29423 15.4479 7.03745 14.9018 5.91168C14.3557 4.78592 13.5037 3.83664 12.4433 3.1725C11.3828 2.50835 10.1569 2.15617 8.90562 2.15625ZM3.80962 8.82025C3.80962 7.46871 4.34652 6.17252 5.3022 5.21683C6.25789 4.26115 7.55408 3.72425 8.90562 3.72425C10.2572 3.72425 11.5534 4.26115 12.509 5.21683C13.4647 6.17252 14.0016 7.46871 14.0016 8.82025C14.0016 10.1718 13.4647 11.468 12.509 12.4237C11.5534 13.3794 10.2572 13.9162 8.90562 13.9162C7.55408 13.9162 6.25789 13.3794 5.3022 12.4237C4.34652 11.468 3.80962 10.1718 3.80962 8.82025Z" fill="#9D9D9D"/>
</g>
</g>
<defs>
<clipPath id="clip0_266_3066">
<rect width="18.816" height="18.816" fill="white" transform="translate(0.673828 0.587891)"/>
</clipPath>
</defs>
</svg>
