<svg width="20" height="20" viewBox="0 0 20 20" fill="none" xmlns="http://www.w3.org/2000/svg">
<g id="material-symbols:share-outline">
<path id="Vector" d="M14.8459 17.7884C14.1926 17.7884 13.6373 17.5597 13.1799 17.1024C12.7226 16.6451 12.4939 16.0897 12.4939 15.4364C12.4939 15.3449 12.5005 15.2501 12.5135 15.1518C12.5266 15.0535 12.5462 14.9655 12.5723 14.8876L7.04514 11.6732C6.823 11.8692 6.57474 12.0229 6.30034 12.1342C6.02594 12.2455 5.73847 12.3009 5.43794 12.3004C4.7846 12.3004 4.22927 12.0717 3.77194 11.6144C3.3146 11.1571 3.08594 10.6017 3.08594 9.9484C3.08594 9.29507 3.3146 8.73973 3.77194 8.2824C4.22927 7.82507 4.7846 7.5964 5.43794 7.5964C5.73847 7.5964 6.02594 7.65206 6.30034 7.76339C6.57474 7.87472 6.823 8.02812 7.04514 8.2236L12.5723 5.0092C12.5462 4.9308 12.5266 4.84273 12.5135 4.74499C12.5005 4.64725 12.4939 4.55239 12.4939 4.4604C12.4939 3.80707 12.7226 3.25173 13.1799 2.7944C13.6373 2.33707 14.1926 2.1084 14.8459 2.1084C15.4993 2.1084 16.0546 2.33707 16.5119 2.7944C16.9693 3.25173 17.1979 3.80707 17.1979 4.4604C17.1979 5.11373 16.9693 5.66907 16.5119 6.1264C16.0546 6.58373 15.4993 6.8124 14.8459 6.8124C14.5454 6.8124 14.2579 6.757 13.9835 6.64619C13.7091 6.53539 13.4609 6.38172 13.2387 6.1852L7.71154 9.3996C7.73767 9.478 7.75727 9.56633 7.77034 9.66459C7.7834 9.76285 7.78994 9.85745 7.78994 9.9484C7.78994 10.0399 7.7834 10.1347 7.77034 10.233C7.75727 10.3313 7.73767 10.4193 7.71154 10.4972L13.2387 13.7116C13.4609 13.5156 13.7091 13.3622 13.9835 13.2514C14.2579 13.1406 14.5454 13.0849 14.8459 13.0844C15.4993 13.0844 16.0546 13.3131 16.5119 13.7704C16.9693 14.2277 17.1979 14.7831 17.1979 15.4364C17.1979 16.0897 16.9693 16.6451 16.5119 17.1024C16.0546 17.5597 15.4993 17.7884 14.8459 17.7884ZM14.8459 5.2444C15.0681 5.2444 15.2544 5.1694 15.4049 5.01939C15.5555 4.86939 15.6305 4.68305 15.6299 4.4604C15.6299 4.23827 15.5547 4.0522 15.4041 3.90219C15.2536 3.75219 15.0675 3.67692 14.8459 3.6764C14.6238 3.6764 14.4377 3.75166 14.2877 3.90219C14.1377 4.05272 14.0625 4.23879 14.0619 4.4604C14.0619 4.68253 14.1372 4.86886 14.2877 5.01939C14.4383 5.16992 14.6243 5.24492 14.8459 5.2444ZM5.43794 10.7324C5.66007 10.7324 5.8464 10.6571 5.99693 10.5066C6.14746 10.3561 6.22246 10.17 6.22194 9.9484C6.22194 9.72627 6.14667 9.5402 5.99615 9.39019C5.84562 9.24019 5.65955 9.16492 5.43794 9.1644C5.2158 9.1644 5.02973 9.23966 4.87973 9.39019C4.72972 9.54072 4.65446 9.72679 4.65394 9.9484C4.65394 10.1705 4.7292 10.3569 4.87973 10.5074C5.03026 10.6579 5.21633 10.7329 5.43794 10.7324ZM14.8459 16.2204C15.0681 16.2204 15.2544 16.1451 15.4049 15.9946C15.5555 15.8441 15.6305 15.658 15.6299 15.4364C15.6299 15.2143 15.5547 15.0282 15.4041 14.8782C15.2536 14.7282 15.0675 14.6529 14.8459 14.6524C14.6238 14.6524 14.4377 14.7277 14.2877 14.8782C14.1377 15.0287 14.0625 15.2148 14.0619 15.4364C14.0619 15.6585 14.1372 15.8449 14.2877 15.9954C14.4383 16.1459 14.6243 16.2209 14.8459 16.2204Z" fill="#0F8805"/>
</g>
</svg>
