<svg width="11" height="11" viewBox="0 0 11 11" fill="none" xmlns="http://www.w3.org/2000/svg">
<g id="ph:star-fill" clip-path="url(#clip0_266_3687)">
<path id="Vector" d="M9.73318 4.7988L7.96526 6.34171L8.49485 8.63883C8.52288 8.75892 8.51488 8.8846 8.47186 9.00017C8.42885 9.11574 8.35272 9.21606 8.25299 9.28859C8.15327 9.36113 8.03438 9.40266 7.91118 9.40799C7.78798 9.41332 7.66594 9.38221 7.56033 9.31856L5.55682 8.10336L3.55762 9.31856C3.452 9.38221 3.32996 9.41332 3.20677 9.40799C3.08357 9.40266 2.96467 9.36113 2.86495 9.28859C2.76523 9.21606 2.6891 9.11574 2.64608 9.00017C2.60306 8.8846 2.59506 8.75892 2.62309 8.63883L3.1519 6.34407L1.38358 4.7988C1.29006 4.71814 1.22243 4.61165 1.18917 4.49271C1.15592 4.37376 1.15853 4.24764 1.19667 4.13017C1.23481 4.0127 1.30678 3.9091 1.40356 3.83237C1.50034 3.75564 1.61762 3.70919 1.7407 3.69885L4.07153 3.49697L4.98136 1.32686C5.02887 1.21299 5.10901 1.11572 5.21169 1.0473C5.31437 0.978889 5.435 0.942383 5.55838 0.942383C5.68177 0.942383 5.80239 0.978889 5.90507 1.0473C6.00775 1.11572 6.08789 1.21299 6.13541 1.32686L7.04798 3.49697L9.37803 3.69885C9.5011 3.70919 9.61839 3.75564 9.71517 3.83237C9.81195 3.9091 9.88392 4.0127 9.92206 4.13017C9.9602 4.24764 9.9628 4.37376 9.92955 4.49271C9.8963 4.61165 9.82867 4.71814 9.73514 4.7988H9.73318Z" fill="#F6BA1F"/>
</g>
<defs>
<clipPath id="clip0_266_3687">
<rect width="10.0352" height="10.0352" fill="white" transform="translate(0.541016 0.628906)"/>
</clipPath>
</defs>
</svg>
