<svg width="19" height="19" viewBox="0 0 19 19" fill="none" xmlns="http://www.w3.org/2000/svg">
<g id="carbon:view-filled" clip-path="url(#clip0_266_5224)">
<path id="Vector" d="M9.43403 11.9159C10.733 11.9159 11.786 10.8629 11.786 9.56391C11.786 8.26494 10.733 7.21191 9.43403 7.21191C8.13506 7.21191 7.08203 8.26494 7.08203 9.56391C7.08203 10.8629 8.13506 11.9159 9.43403 11.9159Z" fill="#3858FF"/>
<path id="Vector_2" d="M18.2178 9.36476C17.5262 7.57586 16.3256 6.02881 14.7643 4.91483C13.2031 3.80084 11.3496 3.16875 9.43303 3.09668C7.51646 3.16875 5.663 3.80084 4.10175 4.91483C2.5405 6.02881 1.33989 7.57586 0.648311 9.36476C0.601605 9.49395 0.601605 9.63541 0.648311 9.7646C1.33989 11.5535 2.5405 13.1005 4.10175 14.2145C5.663 15.3285 7.51646 15.9606 9.43303 16.0327C11.3496 15.9606 13.2031 15.3285 14.7643 14.2145C16.3256 13.1005 17.5262 11.5535 18.2178 9.7646C18.2645 9.63541 18.2645 9.49395 18.2178 9.36476ZM9.43303 13.3867C8.67711 13.3867 7.93817 13.1625 7.30964 12.7426C6.68112 12.3226 6.19124 11.7257 5.90196 11.0273C5.61269 10.3289 5.537 9.56044 5.68447 8.81904C5.83194 8.07765 6.19595 7.39663 6.73047 6.86212C7.26499 6.3276 7.946 5.96359 8.6874 5.81612C9.42879 5.66865 10.1973 5.74433 10.8956 6.03361C11.594 6.32289 12.1909 6.81277 12.6109 7.44129C13.0309 8.06982 13.255 8.80876 13.255 9.56468C13.2535 10.5779 12.8503 11.5491 12.1339 12.2655C11.4174 12.982 10.4462 13.3851 9.43303 13.3867Z" fill="#3858FF"/>
</g>
<defs>
<clipPath id="clip0_266_5224">
<rect width="18.816" height="18.816" fill="white" transform="translate(0.0253906 0.15625)"/>
</clipPath>
</defs>
</svg>
